<svg viewBox="-2.4 -2.4 28.80 28.80" data-name="016_FOOD" id="_016_FOOD" xmlns="http://www.w3.org/2000/svg" fill="" stroke=""><g id="SVGRepo_bgCarrier" stroke-width="0"><rect x="-2.4" y="-2.4" width="28.80" height="28.80" rx="14.4" fill="#bd5500" strokewidth="0"></rect></g><g id="SVGRepo_tracerCarrier" stroke-linecap="round" stroke-linejoin="round"></g><g id="SVGRepo_iconCarrier"><defs><style>.cls-1{fill:#ffffff;}</style></defs><circle class="cls-1" cx="15" cy="16" r="1"></circle><circle class="cls-1" cx="8" cy="16" r="1"></circle><circle class="cls-1" cx="8" cy="9" r="1"></circle><path class="cls-1" d="M11.53,22a9.53,9.53,0,1,1,0-19,1,1,0,0,1,0,2A7.53,7.53,0,1,0,19,13.31a1,1,0,0,1,1.1-.88,1,1,0,0,1,.88,1.1A9.5,9.5,0,0,1,11.53,22Z"></path><path class="cls-1" d="M12.67,12.33a1,1,0,0,1-1-1.21L13.5,2.79A1,1,0,0,1,14.69,2,9.55,9.55,0,0,1,22,9.31a1,1,0,0,1-.77,1.19l-8.33,1.81Zm2.56-8.08L14,10l5.77-1.25A7.54,7.54,0,0,0,15.23,4.25Z"></path></g></svg>